<svg width="208" height="208" viewBox="0 0 208 208" fill="none" xmlns="http://www.w3.org/2000/svg">
<g filter="url(#filter0_bd_51_99)">
<path fill-rule="evenodd" clip-rule="evenodd" d="M40 20H104L136 52V84L168 116V148H72L40 116V20ZM45.3333 63.4667C45.3333 60.5212 47.7211 58.1333 50.6667 58.1333C53.6122 58.1333 56 60.5212 56 63.4667V72.8C56 75.7455 53.6122 78.1333 50.6667 78.1333C47.7211 78.1333 45.3333 75.7455 45.3333 72.8V63.4667ZM50.6667 90.1333C47.7211 90.1333 45.3333 92.5212 45.3333 95.4667C45.3333 98.4122 47.7211 100.8 50.6667 100.8C53.6122 100.8 56 98.4122 56 95.4667C56 92.5212 53.6122 90.1333 50.6667 90.1333Z" fill="#D9D9D9" fill-opacity="0.01" shape-rendering="crispEdges"/>
</g>
<path d="M40 20H104L136 52V84L168 116V148L72 148L40 116V20Z" stroke="url(#paint0_linear_51_99)" stroke-width="0.64"/>
<rect x="45.6535" y="90.72" width="10.0267" height="10.0267" rx="5.01333" stroke="url(#paint1_linear_51_99)" stroke-width="0.64"/>
<rect x="45.6535" y="58.4533" width="10.0267" height="19.36" rx="5.01333" stroke="url(#paint2_linear_51_99)" stroke-width="0.64"/>
<defs>
<filter id="filter0_bd_51_99" x="0" y="-20" width="208" height="228" filterUnits="userSpaceOnUse" color-interpolation-filters="sRGB">
<feFlood flood-opacity="0" result="BackgroundImageFix"/>
<feGaussianBlur in="BackgroundImageFix" stdDeviation="20"/>
<feComposite in2="SourceAlpha" operator="in" result="effect1_backgroundBlur_51_99"/>
<feColorMatrix in="SourceAlpha" type="matrix" values="0 0 0 0 0 0 0 0 0 0 0 0 0 0 0 0 0 0 127 0" result="hardAlpha"/>
<feOffset dy="20"/>
<feGaussianBlur stdDeviation="20"/>
<feComposite in2="hardAlpha" operator="out"/>
<feColorMatrix type="matrix" values="0 0 0 0 0 0 0 0 0 0 0 0 0 0 0 0 0 0 0.25 0"/>
<feBlend mode="normal" in2="effect1_backgroundBlur_51_99" result="effect2_dropShadow_51_99"/>
<feBlend mode="normal" in="SourceGraphic" in2="effect2_dropShadow_51_99" result="shape"/>
</filter>
<linearGradient id="paint0_linear_51_99" x1="104" y1="20" x2="104" y2="148" gradientUnits="userSpaceOnUse">
<stop stop-color="white"/>
<stop offset="1" stop-color="white" stop-opacity="0"/>
</linearGradient>
<linearGradient id="paint1_linear_51_99" x1="50.6668" y1="90.4" x2="50.6668" y2="101.067" gradientUnits="userSpaceOnUse">
<stop stop-color="white"/>
<stop offset="1" stop-color="white" stop-opacity="0"/>
</linearGradient>
<linearGradient id="paint2_linear_51_99" x1="50.6668" y1="58.1333" x2="50.6668" y2="78.1333" gradientUnits="userSpaceOnUse">
<stop stop-color="white"/>
<stop offset="1" stop-color="white" stop-opacity="0"/>
</linearGradient>
</defs>
</svg>
