<svg width="38" height="12" viewBox="0 0 38 12" fill="none" xmlns="http://www.w3.org/2000/svg">
<path d="M1 0.340332C0.447715 0.340332 0 0.788047 0 1.34033V10.6594C0 11.2117 0.447715 11.6594 1 11.6594C1.55228 11.6594 2 11.2117 2 10.6594V3.25021L4.5436 10.9723C4.67868 11.3823 5.06167 11.6594 5.4934 11.6594H6.695C7.13473 11.6594 7.52286 11.3722 7.65135 10.9516L9.96625 3.37561V10.6594C9.96625 11.2117 10.414 11.6594 10.9663 11.6594C11.5185 11.6594 11.9663 11.2117 11.9663 10.6594V1.34033C11.9663 0.788047 11.5185 0.340332 10.9663 0.340332H9.5425C9.10277 0.340332 8.71465 0.62758 8.58615 1.04811L6.08097 9.24687L3.37355 1.02747C3.23848 0.61741 2.85549 0.340332 2.42375 0.340332H1Z" fill="#7F7F7F"/>
<path d="M25.8338 1.1135C26.1874 0.689226 26.818 0.631902 27.2423 0.985466L31.801 4.78444L36.3598 0.985466C36.7841 0.631902 37.4146 0.689226 37.7682 1.1135C38.1218 1.53778 38.0644 2.16834 37.6402 2.52191L33.3631 6.08615L37.6402 9.6504C38.0644 10.004 38.1218 10.6345 37.7682 11.0588C37.4146 11.4831 36.7841 11.5404 36.3598 11.1868L31.801 7.38786L27.2423 11.1868C26.818 11.5404 26.1874 11.4831 25.8338 11.0588C25.4803 10.6345 25.5376 10.004 25.9619 9.6504L30.239 6.08615L25.9619 2.52191C25.5376 2.16834 25.4803 1.53778 25.8338 1.1135Z" fill="#7F7F7F"/>
<path d="M13.7629 6.08617C13.7629 5.53388 14.2106 5.08617 14.7629 5.08617H24.2546C24.8069 5.08617 25.2546 5.53388 25.2546 6.08617C25.2546 6.63845 24.8069 7.08617 24.2546 7.08617H14.7629C14.2106 7.08617 13.7629 6.63845 13.7629 6.08617Z" fill="#7F7F7F"/>
</svg>
