<svg width="23" height="22" viewBox="0 0 23 22" fill="none" xmlns="http://www.w3.org/2000/svg">
<path d="M20.0896 14.9255V18.397L22.0817 20.3745C22.1549 20.4477 22.1989 20.5502 22.1989 20.6528V21.1215C22.1989 21.2387 22.1696 21.3266 22.0963 21.3998C22.0231 21.4731 21.9206 21.517 21.8034 21.517H17.8924C17.7899 21.517 17.6873 21.4731 17.6141 21.3998C17.4237 21.2094 17.2332 21.0043 17.0428 20.8139C16.8524 20.6235 16.662 20.4331 16.4716 20.2426H15.8856C15.7831 20.2426 15.6806 20.1987 15.6073 20.1254L14.7285 19.2612C14.6552 19.188 14.6113 19.0854 14.6113 18.9829V17.8404C14.6113 17.7378 14.6552 17.6353 14.7285 17.5621L14.9628 17.3277L14.9628 15.6578C14.9628 15.5846 14.9921 15.5114 15.0507 15.4528L15.1386 15.3649L10.8321 11.0584V11.8055C10.8321 11.9226 10.8028 12.0105 10.7296 12.0838C10.6564 12.157 10.5538 12.201 10.4366 12.201H8.91326C8.81072 12.201 8.70819 12.157 8.63495 12.0838L7.68284 11.1317C7.6096 11.0584 7.56566 10.9559 7.56566 10.8534V9.5204H7.19946C7.09692 9.5204 6.99439 9.47645 6.92115 9.40321L6.11552 8.59758C6.04228 8.52434 5.99833 8.42181 5.99833 8.31927V7.51364C5.99833 7.39646 6.04228 7.29392 6.11552 7.22068C6.18876 7.14744 6.27664 7.11815 6.39383 7.11815H7.44847C7.55101 7.11815 7.65354 7.16209 7.72678 7.23533L7.96115 7.45505C8.03439 7.52829 8.07833 7.63082 8.07833 7.73336V7.98237L15.2997 15.2038L15.5194 14.984L12.6924 12.157C12.6192 12.0838 12.5752 11.9812 12.5752 11.8787V11.5857L9.26481 8.27533C9.19157 8.20209 9.14762 8.09955 9.14762 7.99702L9.13298 6.66406L7.2727 4.81843H6.33524L6.18876 4.96491C6.10087 5.03815 6.01298 5.06745 5.91045 5.06745H4.82651C4.72397 5.06745 4.62144 5.0235 4.5482 4.95026L1.01806 1.44942C0.944823 1.37619 0.900879 1.27365 0.900879 1.17112V0.878158C0.900879 0.760975 0.944823 0.658441 1.01806 0.585201C1.0913 0.511962 1.17919 0.482666 1.29637 0.482666L6.29129 0.482666C6.39383 0.482666 6.49636 0.52661 6.5696 0.599849L8.03439 2.06463L8.56171 2.06463C8.66424 2.06463 8.76678 2.10858 8.84002 2.18182C9.25016 2.59196 9.6603 3.0021 10.0704 3.39759C10.4659 3.79308 10.8761 4.20322 11.2862 4.61336C11.3595 4.6866 11.4034 4.78914 11.4034 4.89167V6.00491L12.6631 7.26463H13.9375C14.04 7.26463 14.1425 7.30857 14.2158 7.38181C14.8017 7.95307 15.3876 8.52434 15.9882 9.09561C16.5741 9.66687 17.16 10.2528 17.7459 10.8387C17.8192 10.9119 17.8631 11.0145 17.8631 11.117L17.8631 12.5379L19.9724 14.6471C20.0456 14.7204 20.0896 14.8229 20.0896 14.9255ZM11.3448 2.06463H10.9347C10.8321 2.06463 10.7296 2.02069 10.6564 1.94745L9.89467 1.18576C9.82143 1.09788 9.79213 1.00999 9.79213 0.907454V0.775623C9.79213 0.585201 9.89467 0.482666 10.0851 0.482666L15.6659 0.482666C15.7685 0.482666 15.871 0.52661 15.9442 0.599849C16.7499 1.39083 17.5408 2.18182 18.3318 2.9728C19.1228 3.76379 19.9138 4.55477 20.7194 5.3604H20.8952C20.9977 5.3604 21.1003 5.40435 21.1735 5.47759L22.0524 6.35646C22.1256 6.4297 22.1696 6.53223 22.1696 6.63477V10.9998C22.1696 11.1024 22.1256 11.2049 22.0524 11.2781L20.2361 13.0945C20.1482 13.1824 20.0603 13.2263 19.9577 13.2263C19.8552 13.2263 19.7673 13.1824 19.6794 13.0945L19.2254 12.655C19.1521 12.5818 19.1082 12.4793 19.1082 12.3767L19.1082 9.81335L17.9949 8.68547C17.9217 8.61223 17.8777 8.50969 17.8777 8.40716V7.54293L15.08 4.75984L14.2158 4.75984C14.1132 4.75984 14.0107 4.7159 13.9375 4.64266C13.498 4.21787 13.0733 3.77843 12.6485 3.35365C12.2237 2.92886 11.7842 2.50407 11.3448 2.06463ZM16.2079 1.18576V1.81562L19.7527 5.3604L20.3972 5.3604L18.991 3.96886H18.9763L16.2079 1.18576ZM11.7256 17.4449V19.1001L13 20.3745C13.0733 20.4477 13.1172 20.5502 13.1172 20.6528V21.1215C13.1172 21.2387 13.0879 21.3266 13.0147 21.3998C12.9414 21.4731 12.8389 21.517 12.7217 21.517L9.22086 21.517C9.11833 21.517 9.01579 21.4731 8.94255 21.3998L5.82256 18.2798L5.72002 18.3824C5.64679 18.4556 5.57355 18.4849 5.47101 18.4849H5.23665C5.13411 18.4849 5.03158 18.4409 4.95834 18.3677L4.22594 17.6207C4.1527 17.5474 4.10876 17.4449 4.10876 17.3424V16.9469L1.01806 13.8562C0.944823 13.7829 0.900879 13.6804 0.900879 13.5779L0.900879 12.3328C0.900879 12.2302 0.944823 12.1277 1.01806 12.0545L1.39891 11.6736L1.39891 8.71476C1.39891 8.61223 1.44285 8.50969 1.51609 8.43645L2.57073 7.38181V7.08885C2.57073 6.98632 2.61468 6.88378 2.68792 6.81054L3.88904 5.62406C3.96228 5.55083 4.06482 5.50688 4.16735 5.50688H5.03158C5.14876 5.50688 5.25129 5.53618 5.32453 5.60942C5.39777 5.68266 5.42707 5.78519 5.42707 5.90237C5.42707 6.83984 5.42707 7.76265 5.42707 8.68547C5.42707 9.60828 5.42707 10.5457 5.41242 11.4832L8.9572 15.028H9.30875C9.41129 15.028 9.51382 15.0719 9.58706 15.1452L11.6085 17.1666C11.6817 17.2398 11.7256 17.3424 11.7256 17.4449ZM7.34594 15.028H8.63495C7.56566 13.9587 6.48171 12.8894 5.41242 11.8201V12.2302L6.05693 12.8601V13.739L7.34594 15.028Z" fill="white"/>
</svg>
