<svg width="22" height="22" viewBox="0 0 22 22" fill="none" xmlns="http://www.w3.org/2000/svg">
<path d="M15.4159 9.93029L17.4227 9.93029C17.5252 9.93029 17.6278 9.97423 17.701 10.0475C18.3748 10.7066 19.0339 11.3658 19.6931 12.0249C20.3523 12.6841 21.0114 13.3432 21.6852 14.017C21.7585 14.0903 21.8024 14.1928 21.8024 14.2954V15.6576C21.8024 15.7601 21.7585 15.8627 21.6852 15.9359L21.1286 16.4925V17.7083L21.6852 18.2649C21.7585 18.3382 21.8024 18.4407 21.8024 18.5432V21.1359C21.8024 21.2531 21.7731 21.341 21.6999 21.4142C21.6266 21.4875 21.5241 21.5314 21.4069 21.5314H21.0993C20.9968 21.5314 20.8942 21.4875 20.821 21.4142L20.1472 20.7404H15.2109L14.5371 21.4142C14.4638 21.4875 14.3613 21.5314 14.2587 21.5314L11.3878 21.5314C11.2852 21.5314 11.1827 21.4875 11.1095 21.4142C9.63003 19.9055 8.15059 18.3968 6.68581 16.9173C5.20637 15.4379 3.72694 13.9438 2.24751 12.4351C2.17427 12.3618 2.13032 12.2593 2.13032 12.1568V11.0142C1.91061 10.7945 1.70553 10.5894 1.48582 10.3697C1.2661 10.1647 1.06102 9.95959 0.855952 9.73987C0.782713 9.66663 0.73877 9.56409 0.73877 9.46156L0.73877 6.59058C0.73877 6.48804 0.782713 6.38551 0.855952 6.31227L2.05708 5.11115C2.13032 5.03791 2.23286 4.99396 2.33539 4.99396C2.45257 4.99396 2.54046 5.03791 2.6137 5.11115L5.22102 7.71846C5.29426 7.7917 5.3382 7.89424 5.3382 7.99677L5.3382 9.08072C5.3382 9.18325 5.29426 9.28579 5.22102 9.35903L4.73764 9.8424V11.981L8.98551 16.2289H15.2109L15.7089 15.7162L14.3027 14.3246H11.0362C10.9337 14.3246 10.8311 14.2807 10.7579 14.2075L5.9827 9.41762C5.90946 9.34438 5.86552 9.24184 5.86552 9.13931L5.86552 7.63058C5.86552 7.51339 5.90946 7.41086 5.9827 7.33762C6.05594 7.26438 6.14384 7.23509 6.26102 7.23509H7.11059C5.66046 5.7703 4.19567 4.30551 2.73088 2.85538C2.65764 2.78214 2.6137 2.6796 2.6137 2.57707L2.6137 0.877914C2.6137 0.760731 2.65764 0.658196 2.73088 0.584957C2.80412 0.511717 2.89201 0.482421 3.00919 0.482421L9.30777 0.482421C9.41031 0.482421 9.51284 0.526365 9.58608 0.599604C10.6261 1.6396 11.6514 2.66495 12.6768 3.67565C13.6875 4.68636 14.7128 5.71171 15.7528 6.75171V6.15114L11.9004 2.29876C11.8272 2.22552 11.7833 2.12298 11.7833 2.02045V0.877914C11.7833 0.760731 11.8272 0.658196 11.9004 0.584957C11.9737 0.511717 12.0616 0.482421 12.1787 0.482421C12.6475 0.482421 13.1162 0.482421 13.5996 0.482421C14.0683 0.482421 14.5371 0.482421 15.0058 0.467773C15.1083 0.467773 15.2109 0.511717 15.2841 0.584957L16.3094 1.61031L18.3455 3.66101C18.5213 3.82213 18.6971 3.99791 18.8728 4.17368C19.034 4.34946 19.2097 4.52523 19.3709 4.68636L20.5134 4.68636C20.6159 4.68636 20.7185 4.7303 20.7917 4.80354L21.6852 5.68241C21.7585 5.75565 21.8024 5.85819 21.8024 5.96072V10.0768C21.8024 10.194 21.7731 10.2818 21.6999 10.3551C21.6266 10.4283 21.5241 10.4723 21.4069 10.4723H20.2351C20.1325 10.4723 20.03 10.4283 19.9568 10.3551L17.7449 8.1286H16.6463C16.5438 8.1286 16.4413 8.08466 16.368 8.01142L15.8554 7.49875C15.7821 7.42551 15.7528 7.33762 15.7528 7.23509V7.08861L13.3359 4.65706L13.1162 4.87678C13.043 4.95002 12.9404 4.99396 12.8379 4.99396L8.4289 4.99396L12.6035 9.1686C12.6768 9.24184 12.7207 9.34438 12.7207 9.44691V12.3911L15.9286 15.599H16.8661L16.2802 15.0131C16.2069 14.9399 16.163 14.8373 16.163 14.7348V14.3686L15.6796 13.8852C15.6063 13.812 15.5624 13.7094 15.5624 13.6069V13.3579L13.9804 11.7466C13.9072 11.6734 13.8633 11.5709 13.8633 11.4683C13.8633 11.3658 13.9072 11.2779 13.9951 11.19L15.1376 10.0475C15.2109 9.97423 15.3134 9.93029 15.4159 9.93029ZM7.55003 17.4007V16.4339L2.80412 11.7027V12.6548L7.55003 17.4007Z" fill="white"/>
</svg>
