<svg width="1200" height="1200" viewBox="0 0 1200 1200" fill="none" xmlns="http://www.w3.org/2000/svg">
<path d="M1122.87 624.194H1050.41C1049.33 624.194 1048.3 624.634 1047.56 625.394L1024.66 648.822C1023.91 649.595 1022.87 650.022 1021.81 650.022H801.582C800.515 650.022 799.502 649.595 798.756 648.848L526.218 376.186C525.471 375.439 524.445 375.013 523.392 375.013H501.468C500.402 375.013 499.389 374.586 498.643 373.839L387.396 262.542L387.516 262.422L381.932 256.835C379.413 254.315 381.199 250.008 384.758 250.008H698.065C699.132 250.008 700.144 249.582 700.891 248.835L709.394 240.328C710.953 238.768 713.486 238.768 715.045 240.328L848.482 373.839C849.228 374.586 849.655 375.613 849.655 376.666V398.347C849.655 399.413 850.081 400.427 850.827 401.173L898.461 448.828C899.207 449.575 900.233 450.002 901.286 450.002H972.936C974.002 450.002 975.015 450.428 975.761 451.175L1098.36 573.832C1099.11 574.579 1100.14 575.006 1101.19 575.006H1195.5C1197.71 575.006 1199.49 573.219 1199.49 571.006V326.651C1199.49 325.584 1199.07 324.571 1198.32 323.824L1125.7 251.168C1124.95 250.422 1123.93 249.995 1122.87 249.995H1076.21C1075.15 249.995 1074.13 249.568 1073.39 248.822L825.838 1.17337C825.092 0.426681 824.066 0 823.013 0H628.748C626.536 0 624.75 1.78673 624.75 4.00013V98.35C624.75 99.4167 625.176 100.43 625.922 101.177L848.482 323.837C849.228 324.584 849.655 325.611 849.655 326.664V340.345C849.655 343.905 845.35 345.692 842.831 343.171L724.707 224.994L500.975 1.17337C500.229 0.426681 499.203 0 498.15 0H103.969C101.757 0 99.9712 1.78673 99.9712 4.00013V123.351C99.9712 124.417 100.397 125.431 101.144 126.178L173.767 198.833C174.513 199.58 174.94 200.607 174.94 201.66V223.341C174.94 224.407 175.366 225.421 176.112 226.168L199.929 249.995L199.956 250.022H199.889L298.7 348.878C299.447 349.625 299.873 350.652 299.873 351.705V498.337C299.873 499.403 300.3 500.417 301.046 501.163L523.606 723.824C524.352 724.571 524.779 725.598 524.779 726.651V740.331C524.779 743.891 520.474 745.678 517.955 743.158L276.057 501.15C275.31 500.403 274.884 499.377 274.884 498.323V426.641C274.884 425.574 274.457 424.561 273.711 423.814L102.783 252.808C101.224 251.248 98.6915 251.248 97.1322 252.808L1.17268 348.812C0.42633 349.558 0 350.585 0 351.638V523.324C0 524.391 0.42633 525.404 1.17268 526.151L74.2753 599.287C75.0216 600.033 75.448 601.06 75.448 602.113V673.436C75.448 674.503 75.8746 675.516 76.621 676.263L446.998 1047.17C448.557 1048.73 448.557 1051.26 446.998 1052.82L426.007 1073.82C425.26 1074.57 424.234 1075 423.181 1075H401.511C400.444 1075 399.431 1075.42 398.685 1076.17L302.725 1172.17C301.166 1173.73 301.166 1176.27 302.725 1177.83L323.717 1198.83C324.463 1199.57 325.489 1200 326.542 1200H673.076C674.142 1200 675.155 1199.57 675.901 1198.83L723.534 1151.17C724.281 1150.43 724.707 1149.4 724.707 1148.34V1076.66C724.707 1075.6 724.281 1074.58 723.534 1073.84L550.954 901.177C550.208 900.43 549.182 900.003 548.129 900.003H476.479C475.413 900.003 474.4 899.577 473.653 898.83L226.104 651.168C225.358 650.422 224.932 649.395 224.932 648.342V551.658C224.932 550.592 225.358 549.578 226.104 548.832L259.584 515.324C261.143 513.764 263.675 513.764 265.235 515.324L523.632 773.839C524.379 774.586 524.805 775.613 524.805 776.666V798.347C524.805 799.413 525.232 800.427 525.978 801.173L598.601 873.829C599.347 874.576 600.373 875.003 601.426 875.003H695.733C697.945 875.003 699.731 873.216 699.731 871.002V759.719C699.731 756.159 704.036 754.372 706.555 756.892L773.527 823.894C774.273 824.641 775.299 825.068 776.352 825.068H898.047C899.114 825.068 900.127 824.641 900.873 823.894L923.463 801.293C924.21 800.547 925.236 800.12 926.289 800.12H947.84C948.906 800.12 949.919 800.547 950.665 801.293L973.429 824.068C974.175 824.814 975.202 825.241 976.255 825.241H1123.13C1124.19 825.241 1125.2 824.814 1125.95 824.068L1198.83 751.158C1199.57 750.412 1200 749.385 1200 748.332V701.303C1200 700.237 1199.57 699.223 1198.83 698.477L1125.71 625.328C1124.97 624.581 1123.94 624.154 1122.89 624.154L1122.87 624.194ZM399.845 926.684V965.366C399.845 968.926 395.54 970.712 393.021 968.192L126.133 701.183C125.387 700.437 124.961 699.41 124.961 698.357V659.675C124.961 656.115 129.265 654.329 131.784 656.849L398.672 923.857C399.418 924.604 399.845 925.631 399.845 926.684ZM798.743 798.853L631.813 631.848C629.294 629.328 631.08 625.021 634.639 625.021H648.313C649.379 625.021 650.392 625.448 651.139 626.194L748.751 723.851C749.497 724.598 750.523 725.024 751.576 725.024H773.247C774.313 725.024 775.326 725.451 776.073 726.198L823.706 773.852C824.452 774.599 825.478 775.026 826.531 775.026H848.202C849.268 775.026 850.281 775.453 851.028 776.199L868.02 793.2C870.539 795.72 868.753 800.027 865.195 800.027H801.542C800.475 800.027 799.463 799.6 798.716 798.853H798.743Z" fill="white"/>
</svg>
