<svg width="1201" height="1201" viewBox="0 0 1201 1201" fill="none" xmlns="http://www.w3.org/2000/svg">
<path d="M1200.04 598.364V326.676C1200.04 325.609 1199.61 324.595 1198.86 323.849L1151.21 276.194C1150.46 275.447 1149.44 275.021 1148.38 275.021H1126.7C1125.64 275.021 1124.62 274.594 1123.88 273.847L875.028 24.9993L850.987 1.3585C850.24 0.625146 849.227 0.211799 848.187 0.211799L500.016 0.0117929H4.00013C1.78672 -0.00154086 0 1.78518 0 3.99859V48.3467C0 49.4134 0.42668 50.4267 1.17337 51.1734L198.833 248.833C199.58 249.58 200.606 250.006 201.66 250.006H298.343C299.41 250.006 300.423 249.58 301.17 248.833L323.824 226.179C324.57 225.432 325.597 225.006 326.65 225.006H348.331C349.398 225.006 350.411 225.432 351.158 226.179L374.985 250.006L473.815 348.836C474.562 349.583 474.989 350.61 474.989 351.663V423.345C474.989 424.412 475.415 425.425 476.162 426.172L673.822 623.832C674.568 624.578 674.995 625.605 674.995 626.658V648.339C674.995 649.406 675.422 650.419 676.168 651.166L822.173 797.171C823.733 798.731 823.733 801.264 822.173 802.824L802.826 822.171C801.266 823.731 798.732 823.731 797.172 822.171L401.159 426.159C400.413 425.412 399.986 424.385 399.986 423.332V401.651C399.986 400.585 399.559 399.571 398.813 398.825L376.159 376.17C375.412 375.424 374.385 374.997 373.332 374.997H303.983C301.77 374.997 299.983 376.784 299.983 378.997V460.84C299.983 461.907 300.41 462.92 301.156 463.667L336.317 498.828C337.064 499.574 338.091 500.001 339.144 500.001H370.985C373.199 500.001 374.985 501.788 374.985 504.001V598.351C374.985 599.418 375.412 600.431 376.159 601.178L423.814 648.832C424.56 649.579 425.587 650.006 426.64 650.006H545.991C548.204 650.006 549.991 648.219 549.991 646.006V609.658C549.991 606.098 554.298 604.311 556.818 606.831L798.825 848.839C799.572 849.586 799.999 850.612 799.999 851.666V948.349C799.999 949.415 799.572 950.429 798.825 951.175L776.171 973.83C775.425 974.576 774.998 975.603 774.998 976.656V1048.34C774.998 1049.41 775.425 1050.42 776.171 1051.17L848.827 1123.82C849.574 1124.57 850.6 1124.99 851.654 1124.99H873.335C874.401 1124.99 875.415 1125.42 876.161 1126.17L948.817 1198.82C949.564 1199.57 950.59 1200 951.644 1200H1196C1198.21 1200 1200 1198.21 1200 1196V1126.65C1200 1125.58 1199.57 1124.57 1198.83 1123.82L1076.17 1001.16C1075.42 1000.42 1074.99 999.39 1074.99 998.337V801.651C1074.99 800.584 1074.57 799.571 1073.82 798.824L1040.33 765.33C1038.77 763.769 1038.77 761.236 1040.33 759.676L1074.99 725.008L1198.83 601.178C1199.57 600.431 1200 599.404 1200 598.351L1200.04 598.364ZM881.855 56.8269L1093.21 268.18C1095.73 270.7 1093.94 275.007 1090.38 275.007H1051.7C1050.63 275.007 1049.62 274.581 1048.87 273.834L876.215 101.175C875.468 100.428 875.041 99.4016 875.041 98.3483V59.667C875.041 56.1069 879.348 54.3202 881.868 56.8403L881.855 56.8269ZM1022.21 747.196L951.204 676.193C950.457 675.447 949.43 675.02 948.377 675.02H875.028H851.681C850.614 675.02 849.6 674.593 848.854 673.847L501.189 326.182C500.443 325.436 500.016 324.409 500.016 323.355V226.672C500.016 225.606 499.589 224.592 498.843 223.846L375.012 100.015L350.011 75.0142L306.836 31.8395C304.316 29.3194 306.103 25.0126 309.663 25.0126H496.016C498.229 25.0126 500.016 26.7993 500.016 29.0127V35.8529C500.016 36.9196 500.443 37.933 501.189 38.6797L561.351 98.8416C562.098 99.5883 563.125 100.015 564.178 100.015H598.366C599.432 100.015 600.446 100.442 601.193 101.188L748.851 248.846C749.597 249.593 750.624 250.02 751.677 250.02H798.359C799.426 250.02 800.439 250.446 801.186 251.193L948.844 398.851C949.59 399.598 950.017 400.625 950.017 401.678V448.359C950.017 449.426 950.444 450.44 951.19 451.186L1023.85 523.842C1024.59 524.589 1025.02 525.615 1025.02 526.669V673.353C1025.02 674.42 1025.45 675.433 1026.19 676.18L1059.69 709.674C1061.25 711.234 1061.25 713.768 1059.69 715.328L1027.85 747.169C1026.29 748.729 1023.75 748.729 1022.19 747.169L1022.21 747.196Z" fill="white"/>
<path d="M461.348 823.851L251.181 613.685C250.435 612.938 250.008 611.911 250.008 610.858V304.008C250.008 301.795 248.221 300.008 246.008 300.008H176.659C175.592 300.008 174.579 300.434 173.832 301.181L101.177 373.837C100.43 374.584 100.003 375.61 100.003 376.664V385.851C100.003 386.917 99.5765 387.931 98.8298 388.677L26.1742 461.333C25.4275 462.08 25.0008 463.106 25.0008 464.16V623.351C25.0008 624.418 24.5741 625.432 23.8274 626.178L1.17337 648.846C0.42668 649.592 0 650.619 0 651.672V748.355C0 749.422 0.42668 750.436 1.17337 751.182L173.832 923.841C174.579 924.588 175.006 925.614 175.006 926.668V948.349C175.006 949.415 175.432 950.429 176.179 951.175L223.834 998.83C224.581 999.577 225.607 1000 226.661 1000H248.341C249.408 1000 250.421 999.577 251.168 998.83L259.675 990.323C261.235 988.763 263.768 988.763 265.328 990.323L473.842 1198.84C474.588 1199.58 475.615 1200.01 476.669 1200.01H573.352C574.418 1200.01 575.432 1199.58 576.178 1198.84L598.832 1176.18C599.579 1175.44 600.006 1174.41 600.006 1173.36V926.668C600.006 925.601 599.579 924.588 598.832 923.841L501.176 826.185C500.429 825.438 499.403 825.011 498.349 825.011H464.161C463.095 825.011 462.081 824.585 461.335 823.838L461.348 823.851ZM373.839 823.851L301.183 751.196C300.436 750.449 300.01 749.422 300.01 748.369V701.687C300.01 700.621 299.583 699.607 298.836 698.861L251.181 651.206C250.435 650.459 250.008 649.432 250.008 648.379V647.192C250.008 643.632 254.315 641.845 256.835 644.365L430.68 818.211C433.201 820.731 431.414 825.038 427.854 825.038H376.665C375.599 825.038 374.585 824.611 373.839 823.865V823.851Z" fill="white"/>
</svg>
