<svg width="1200" height="1200" viewBox="0 0 1200 1200" fill="none" xmlns="http://www.w3.org/2000/svg">
<path d="M1199.95 872.916L1199.99 776.675C1199.99 775.608 1199.56 774.595 1198.81 773.848L976.155 551.192C975.408 550.445 974.382 550.019 973.328 550.019H826.312C825.445 550.019 824.605 550.299 823.912 550.819L742.043 612.219C740.456 613.419 738.216 613.259 736.816 611.846L674.988 550.019L631.814 506.845C629.294 504.325 624.987 506.112 624.987 509.672V598.353C624.987 599.419 625.414 600.433 626.161 601.179L724.989 700.007L849.992 825.009L893.166 868.182C895.687 870.702 893.9 875.009 890.34 875.009H851.659C850.592 875.009 849.579 875.436 848.832 876.183L826.178 898.836C825.432 899.583 824.405 900.009 823.352 900.009H551.666C550.599 900.009 549.586 899.583 548.839 898.836L226.178 576.179C225.432 575.432 225.005 574.406 225.005 573.352V539.165C225.005 538.099 225.432 537.085 226.178 536.339L248.832 513.685C249.579 512.938 250.006 511.912 250.006 510.858V401.67C250.006 400.604 249.579 399.59 248.832 398.844L102.829 252.842C101.269 251.282 98.7355 251.282 97.1755 252.842L1.17337 348.843C0.426683 349.59 0 350.616 0 351.67V523.352C0 524.418 0.426683 525.432 1.17337 526.178L73.8283 598.833C74.575 599.579 75.0017 600.606 75.0017 601.659V673.34C75.0017 674.407 75.4283 675.42 76.175 676.167L598.84 1198.83C599.587 1199.57 600.613 1200 601.667 1200H773.351C774.417 1200 775.431 1199.57 776.177 1198.83L823.832 1151.17C824.578 1150.43 825.605 1150 826.658 1150H1098.37C1099.42 1150 1100.42 1150.41 1101.17 1151.15L1149.57 1198.8C1150.32 1199.53 1151.33 1199.95 1152.37 1199.95H1195.96C1198.17 1199.95 1199.96 1198.16 1199.96 1195.95L1200 1026.65C1200 1025.58 1199.57 1024.57 1198.83 1023.82L1163.67 988.664C1162.92 987.917 1162.49 986.89 1162.49 985.837V914.13C1162.49 913.076 1162.91 912.063 1163.64 911.316L1198.79 875.689C1199.52 874.943 1199.93 873.929 1199.93 872.876L1199.95 872.916ZM368.141 943.197L126.136 701.194C125.389 700.447 124.963 699.42 124.963 698.367V659.687C124.963 656.127 129.269 654.34 131.79 656.86L373.795 898.863C374.542 899.609 374.968 900.636 374.968 901.69V940.37C374.968 943.93 370.662 945.717 368.141 943.197ZM473.797 898.849L226.138 651.193C225.392 650.447 224.965 649.42 224.965 648.367V609.686C224.965 606.126 229.272 604.339 231.792 606.859L518.145 893.209C520.665 895.729 518.878 900.036 515.318 900.036H476.637C475.571 900.036 474.557 899.609 473.81 898.863L473.797 898.849ZM948.808 848.849L781.804 681.847C779.284 679.327 781.071 675.02 784.631 675.02H798.311C799.378 675.02 800.391 675.447 801.138 676.194L898.793 773.848C899.54 774.595 900.567 775.021 901.62 775.021H973.302C974.368 775.021 975.382 775.448 976.128 776.195L1043.13 843.196C1045.65 845.716 1043.86 850.022 1040.3 850.022H951.621C950.554 850.022 949.541 849.596 948.794 848.849H948.808Z" fill="white"/>
<path d="M1148.33 250.016H1076.65C1075.58 250.016 1074.57 249.59 1073.82 248.843L826.166 1.1867C825.419 0.440025 824.393 0.0133465 823.339 0.0133465H628.988C626.775 0.0133465 624.988 1.80003 624.988 4.01339V98.3612C624.988 99.4279 625.415 100.441 626.162 101.188L848.82 323.844C849.567 324.59 849.993 325.617 849.993 326.67V340.351C849.993 343.911 845.687 345.697 843.166 343.177L724.99 225.003L501.159 1.17335C500.412 0.426678 499.385 0 498.332 0H103.977C101.763 0 99.9766 1.78669 99.9766 4.00005V123.348C99.9766 124.415 100.403 125.428 101.15 126.175L223.806 248.83C224.553 249.576 225.579 250.003 226.633 250.003H698.323C699.39 250.003 700.403 249.576 701.15 248.83L709.657 240.323C711.217 238.763 713.75 238.763 715.31 240.323L848.807 373.831C849.553 374.578 849.98 375.604 849.98 376.658V398.338C849.98 399.405 850.407 400.418 851.153 401.165L873.807 423.818C874.554 424.565 875.58 424.992 876.634 424.992H973.316C974.383 424.992 975.396 425.418 976.143 426.165L1123.8 573.82C1124.55 574.567 1125.57 574.993 1126.63 574.993H1195.97C1198.19 574.993 1199.97 573.207 1199.97 570.993V301.643C1199.97 300.577 1199.55 299.563 1198.8 298.817L1151.15 251.163C1150.4 250.416 1149.37 249.99 1148.32 249.99L1148.33 250.016Z" fill="white"/>
</svg>
