<svg width="1200" height="1200" viewBox="0 0 1200 1200" fill="none" xmlns="http://www.w3.org/2000/svg">
<path d="M1048.2 874.733H851.271C850.204 874.733 849.191 875.16 848.445 875.907L825.527 898.827C824.78 899.573 823.753 900 822.7 900H476.571C475.504 900 474.491 899.573 473.744 898.827L226.113 651.173C225.367 650.427 224.94 649.4 224.94 648.347V526.653C224.94 525.6 225.353 524.587 226.1 523.827L248.764 501.027C249.511 500.28 249.924 499.267 249.924 498.2V459.64C249.924 456.08 254.231 454.293 256.75 456.813L299.92 499.987L598.72 798.813C599.467 799.56 600.493 799.987 601.546 799.987H748.213C749.28 799.987 750.293 800.413 751.04 801.16L773.691 823.813C774.438 824.56 775.464 824.987 776.518 824.987H898.187C899.253 824.987 900.267 824.56 901.013 823.813L923.664 801.16C924.411 800.413 925.438 799.987 926.491 799.987H948.169C949.235 799.987 950.249 800.413 950.995 801.16L973.647 823.813C974.393 824.56 975.42 824.987 976.473 824.987H1123.38C1124.45 824.987 1125.46 824.56 1126.21 823.813L1198.61 751.16C1199.36 750.413 1199.79 749.4 1199.79 748.333V701.627C1199.79 700.573 1199.37 699.56 1198.63 698.813L1125.97 625.333C1125.22 624.573 1124.19 624.147 1123.13 624.147H1050.65C1049.57 624.147 1048.55 624.587 1047.8 625.347L1024.9 648.773C1024.15 649.547 1023.11 649.973 1022.04 649.973H901.493C900.426 649.973 899.413 649.547 898.667 648.8L676.033 426.147C675.287 425.4 674.26 424.973 673.207 424.973H651.529C650.462 424.973 649.449 424.547 648.702 423.8L601.053 376.147C600.307 375.4 599.28 374.973 598.227 374.973H501.555C500.489 374.973 499.476 374.547 498.729 373.8L381.739 256.8C379.22 254.28 381.006 249.973 384.566 249.973H698.218C699.284 249.973 700.298 249.547 701.044 248.8L709.55 240.293C711.11 238.733 713.643 238.733 715.203 240.293L824.86 349.96L837.365 362.467L898.693 423.8C899.44 424.547 900.467 424.973 901.52 424.973H948.196C949.262 424.973 950.275 425.4 951.022 426.147L998.671 473.8C999.418 474.547 1000.44 474.973 1001.5 474.973H1195.83C1198.04 474.973 1199.83 473.187 1199.83 470.973V276.627C1199.83 275.56 1199.4 274.547 1198.65 273.8L1151 226.147C1150.26 225.4 1149.23 224.973 1148.18 224.973H1051.51C1050.44 224.973 1049.43 224.547 1048.68 223.8L826.046 1.17333C825.3 0.426667 824.273 0 823.22 0H628.891C626.678 0 624.891 1.78667 624.891 4V98.3467C624.891 99.4133 625.318 100.427 626.064 101.173L823.7 298.827C824.447 299.573 824.873 300.6 824.873 301.653V315.333C824.873 318.893 820.567 320.68 818.047 318.16L724.882 224.987L501.075 1.17333C500.329 0.426667 499.302 0 498.249 0H103.937C101.724 0 99.9377 1.78667 99.9377 4V123.347C99.9377 124.413 100.364 125.427 101.111 126.173L198.756 223.827C199.502 224.573 199.929 225.6 199.929 226.653V250.027H199.902L199.929 250.053V273.333C199.929 274.4 200.355 275.413 201.102 276.16L298.747 373.813C299.493 374.56 299.92 375.587 299.92 376.64V465.32C299.92 468.88 295.614 470.667 293.094 468.147L251.098 426.147C250.351 425.4 249.924 424.373 249.924 423.32V401.64C249.924 400.573 249.498 399.56 248.751 398.813L102.764 252.813C101.204 251.253 98.6712 251.253 97.1113 252.813L1.17324 348.813C0.426635 349.56 0 350.587 0 351.64V498.28C0 499.347 0.426635 500.36 1.17324 501.107L99.9511 599.893V698.333C99.9511 699.4 100.378 700.413 101.124 701.16L368.674 968.733L399.924 999.987L437.414 1037.48V1037.29L598.733 1198.81C599.48 1199.56 600.507 1199.99 601.56 1199.99H773.038C774.104 1199.99 775.118 1199.56 775.878 1198.81L823.727 1150.79C824.473 1150.03 825.5 1149.61 826.566 1149.61H1098.61C1099.68 1149.61 1100.69 1150.04 1101.44 1150.79L1149.47 1198.83C1150.22 1199.57 1151.24 1200 1152.3 1200H1196C1198.21 1200 1200 1198.21 1200 1196V1026.52C1200 1025.45 1199.57 1024.44 1198.83 1023.69L1051.05 875.907C1050.31 875.16 1049.28 874.733 1048.23 874.733H1048.2ZM626.064 601.173L748.707 723.827C749.453 724.573 750.48 725 751.533 725H773.211C774.278 725 775.291 725.427 776.038 726.173L818.034 768.173C820.554 770.693 818.767 775 815.207 775H776.531C775.464 775 774.451 774.573 773.704 773.827L606.719 606.827C604.2 604.307 605.986 600 609.546 600H623.225C624.291 600 625.304 600.427 626.051 601.173H626.064ZM400.004 975.093L399.911 975L126.109 701.173C125.362 700.427 124.936 699.4 124.936 698.347V634.653C124.936 631.093 129.242 629.307 131.762 631.827L398.831 898.827C399.578 899.573 400.004 900.6 400.004 901.653V975.093Z" fill="white"/>
</svg>
