<svg width="1150" height="1200" viewBox="0 0 1150 1200" fill="none" xmlns="http://www.w3.org/2000/svg">
<path d="M748.851 938.517L725.992 961.384C725.245 962.131 724.219 962.557 723.166 962.557H701.586C700.52 962.557 699.507 962.131 698.761 961.384L662.439 925.051H662.332L581.052 843.744L349.873 612.49L301.196 563.797C300.449 563.05 300.023 562.024 300.023 560.97V376.65C300.023 375.584 300.449 374.57 301.196 373.824L323.842 351.17C324.588 350.424 325.015 349.397 325.015 348.344V251.664C325.015 250.597 325.441 249.584 326.188 248.837L348.834 226.184C349.58 225.437 350.007 224.41 350.007 223.357V126.677C350.007 125.61 349.58 124.597 348.834 123.85L301.196 76.1968C300.449 75.4501 299.423 75.0235 298.37 75.0235H251.705C250.639 75.0235 249.626 74.5968 248.879 73.8501L176.25 1.19678C175.503 0.450111 174.477 0.0234375 173.424 0.0234375H4.11867C1.91938 0.0234375 0.119961 1.81009 0.119961 4.01009L0 47.7967C0 48.8634 0.413198 49.8901 1.17295 50.6367L49.3707 98.8501C50.1171 99.5968 50.5436 100.623 50.5436 101.677V373.784C50.5436 374.85 50.1171 375.864 49.3707 376.61L2.14597 423.85C1.39955 424.597 0.973018 425.624 0.973018 426.677V599.197C0.973018 600.264 1.39955 601.277 2.14597 602.024L73.9494 673.85C74.6958 674.597 75.1223 675.624 75.1223 676.677V748.357C75.1223 749.424 75.5489 750.437 76.2953 751.184L123.933 798.837C124.68 799.584 125.706 800.01 126.759 800.01H173.424C174.49 800.01 175.503 800.437 176.25 801.184L256.304 881.264L373.839 998.837C374.585 999.584 375.012 1000.61 375.012 1001.66V1073.34C375.012 1074.41 375.438 1075.42 376.185 1076.17L423.823 1123.82C424.569 1124.57 425.596 1125 426.649 1125H448.322C449.388 1125 450.401 1125.42 451.147 1126.17L498.785 1173.82C499.532 1174.57 500.558 1175 501.611 1175H698.094C699.16 1175 700.173 1175.42 700.92 1176.17L723.566 1198.82C724.312 1199.57 725.339 1200 726.392 1200H898.016C899.082 1200 900.095 1199.57 900.842 1198.82L996.811 1102.82C998.37 1101.26 998.37 1098.73 996.811 1097.17L838.355 938.664C837.609 937.917 836.596 937.491 835.53 937.491L751.65 937.357C750.584 937.357 749.571 937.771 748.811 938.531L748.851 938.517ZM300.036 672.277C300.036 668.717 304.341 666.93 306.861 669.45L599.792 962.477L599.832 962.517L464.143 962.477C463.077 962.477 462.064 962.051 461.317 961.304L376.185 876.144C375.438 875.397 375.012 874.37 375.012 873.317V814.13C375.012 813.064 374.585 812.05 373.839 811.304L326.201 763.65C325.455 762.904 324.428 762.477 323.375 762.477H304.035C301.822 762.477 300.036 760.69 300.036 758.477V672.277ZM473.807 1048.82L256.864 831.81C254.344 829.29 256.13 824.984 259.689 824.984H298.383C299.45 824.984 300.463 825.41 301.209 826.157L518.126 1043.17C520.645 1045.69 518.859 1050 515.3 1050H476.646C475.579 1050 474.566 1049.57 473.82 1048.82H473.807Z" fill="white"/>
<path d="M581.621 131.812C579.102 129.292 574.797 131.079 574.797 134.639V223.319C574.797 224.386 575.223 225.399 575.97 226.146L648.6 298.799C649.346 299.546 650.372 299.972 651.425 299.972H723.082C724.149 299.972 725.162 300.399 725.908 301.146L909.342 484.639C910.901 486.199 910.901 488.732 909.342 490.292L825.862 573.799C825.116 574.546 824.689 575.572 824.689 576.626V848.412C824.689 849.479 825.116 850.492 825.862 851.239L898.385 923.786C899.132 924.532 899.558 925.559 899.558 926.612V973.399C899.558 974.466 899.985 975.479 900.731 976.226L1023.45 1098.99C1024.2 1099.73 1025.22 1100.16 1026.28 1100.16H1073.16C1074.22 1100.16 1075.23 1099.73 1075.98 1098.99L1148.82 1026.12C1149.57 1025.37 1150 1024.35 1150 1023.29V702.026C1150 700.959 1149.57 699.946 1148.82 699.199L581.595 131.785L581.621 131.812Z" fill="white"/>
<path d="M1149.61 570.987V376.64C1149.61 375.574 1149.18 374.56 1148.44 373.814L900.865 126.16C900.118 125.413 899.692 124.387 899.692 123.333V51.6533C899.692 50.5867 899.265 49.5734 898.519 48.8267L850.881 1.17334C850.134 0.426673 849.108 0 848.055 0H578.796C576.583 0 574.797 1.78667 574.797 4V98.3467C574.797 99.4134 575.223 100.427 575.97 101.173L1048.47 573.827C1049.22 574.574 1050.24 575 1051.3 575H1145.61C1147.82 575 1149.61 573.214 1149.61 571V570.987Z" fill="white"/>
</svg>
