<svg width="16" height="16" viewBox="0 0 16 16" fill="none" xmlns="http://www.w3.org/2000/svg">
<path d="M10 5.33323C10.414 5.64372 10.75 6.04634 10.9814 6.50919C11.2128 6.97204 11.3333 7.48242 11.3333 7.9999C11.3333 8.51738 11.2128 9.02776 10.9814 9.49061C10.75 9.95346 10.414 10.3561 10 10.6666M11.8 3.33323C12.496 3.89567 13.0573 4.60665 13.443 5.41411C13.8286 6.22158 14.0288 7.10507 14.0288 7.9999C14.0288 8.89473 13.8286 9.77822 13.443 10.5857C13.0573 11.3932 12.496 12.1041 11.8 12.6666M4 9.9999H2.66667C2.48986 9.9999 2.32029 9.92966 2.19526 9.80464C2.07024 9.67961 2 9.51004 2 9.33323V6.66657C2 6.48976 2.07024 6.32019 2.19526 6.19516C2.32029 6.07014 2.48986 5.9999 2.66667 5.9999H4L6.33333 2.9999C6.3916 2.88672 6.48843 2.79812 6.60633 2.7501C6.72422 2.70207 6.8554 2.69781 6.97617 2.73806C7.09693 2.77832 7.19932 2.86044 7.26482 2.96959C7.33032 3.07875 7.35463 3.20773 7.33333 3.33323V12.6666C7.35463 12.7921 7.33032 12.9211 7.26482 13.0302C7.19932 13.1394 7.09693 13.2215 6.97617 13.2617C6.8554 13.302 6.72422 13.2977 6.60633 13.2497C6.48843 13.2017 6.3916 13.1131 6.33333 12.9999L4 9.9999Z" stroke="#7F7F7F" stroke-linecap="round" stroke-linejoin="round"/>
</svg>
