<svg width="1423" height="103" viewBox="0 0 1423 103" fill="none" xmlns="http://www.w3.org/2000/svg">
<path fill-rule="evenodd" clip-rule="evenodd" d="M1080.14 51.9826C1080.14 80.5028 1094.61 102.139 1124.68 102.139C1153.06 102.139 1158.54 83.1722 1159.1 76.007H1162.75L1160.08 89.3539V100.593H1172.87V55.6354C1172.87 50.1562 1170.06 47.3463 1164.02 47.3463H1121.45V57.1809H1159.8C1160.5 79.2384 1148.98 91.1803 1127.21 91.1803C1102.34 91.1803 1093.07 73.6186 1093.07 52.2636C1093.07 27.5367 1105.15 10.9585 1127.77 10.9585C1144.77 10.9585 1155.59 20.5121 1157.84 36.9498H1170.76C1167.53 14.0493 1151.37 0 1127.35 0C1097.42 0 1080.14 20.793 1080.14 51.9826ZM45.9935 1.06961V34.4029H53.9935V1.06961H45.9935ZM45.9935 67.7359V101.069H53.9935V67.7359H45.9935ZM66.6601 47.0696H99.9935V55.0696H66.6601V47.0696ZM33.3333 47.0684H0V55.0684H33.3333V47.0684ZM434.219 100.593V1.54543H503.061V12.5039H447.004V45.6604H496.036V56.3379H447.004V89.6349H503.061V100.593H434.219ZM341.334 1.54543V100.593H354.119V55.6354H360.863L402.73 100.593H419.589L372.664 50.1562L419.168 1.54543H403.151L361.144 44.9579H354.119V1.54543H341.334ZM237.051 100.593L268.521 1.54543H295.917L327.528 100.593H314.182L302.24 62.6601H262.199L250.257 100.593H237.051ZM265.711 51.7016H298.727L283.975 5.05777H280.463L265.711 51.7016ZM240.918 1.54543H159.993V12.5039H194.133V100.593H206.918V12.5039H240.918V1.54543ZM609.054 34.4029V1.06961H617.054V34.4029H609.054ZM609.054 67.7359V101.069H617.054V67.7359H609.054ZM629.721 47.0696H663.054V55.0696H629.721V47.0696ZM596.394 47.0684H563.061V55.0684H596.394V47.0684ZM1193.38 100.593V1.54541H1262.22V12.5039H1206.16V45.6604H1255.2V56.3379H1206.16V89.6349H1262.22V100.593H1193.38ZM984.771 63.7841V1.54541H997.556V61.1147C997.556 80.9243 1003.88 91.0398 1024.53 91.0398C1045.18 91.0398 1051.79 80.9243 1051.79 61.1147V1.54541H1064.57V63.7841C1064.57 88.5109 1051.79 102.139 1024.53 102.139C997.275 102.139 984.771 88.5109 984.771 63.7841ZM903.885 1.54541V100.593H916.67V58.8668H963.455V48.0488H916.67V12.5039H969.636V1.54541H903.885ZM818.134 100.593V1.54541H886.976V12.5039H830.919V45.6604H879.952V56.3379H830.919V89.6349H886.976V100.593H818.134ZM723.054 1.54541V100.593H735.839V61.3957H785.855V100.593H798.499V64.627C798.499 58.8668 796.252 54.933 789.367 54.933H778.549V51.4206C790.351 49.3132 798.359 43.553 798.359 28.0987C798.359 6.74367 782.905 1.54541 759.723 1.54541H723.054ZM759.723 50.4372H735.839V12.5039H759.723C775.74 12.5039 785.714 13.9088 785.714 30.9086C785.714 47.6273 775.88 50.4372 759.723 50.4372ZM1368.21 34.4029V1.06961H1376.21V34.4029H1368.21ZM1368.21 67.7359V101.069H1376.21V67.7359H1368.21ZM1388.88 47.0696H1422.21V55.0696H1388.88V47.0696ZM1355.55 47.0684H1322.22V55.0684H1355.55V47.0684Z" fill="#E8E8E8"/>
</svg>
