<svg width="22" height="22" viewBox="0 0 22 22" fill="none" xmlns="http://www.w3.org/2000/svg">
<path d="M21.4416 12.8745V14.8373C21.4416 14.9399 21.3976 15.0424 21.3244 15.1156L20.6506 15.7894C20.5773 15.8627 20.4748 15.9066 20.3723 15.9066H17.3401C17.2376 15.9066 17.1644 15.8773 17.0911 15.8041L16.974 15.7015L15.5531 15.7015C15.4506 15.7015 15.348 15.6576 15.2748 15.5844L14.8647 15.1596H14.7328C14.6303 15.1596 14.5571 15.1303 14.4838 15.057L13.7368 14.3246H12.9458V15.3793C12.9458 15.4965 12.9165 15.5844 12.8433 15.6576C12.77 15.7308 12.6675 15.7748 12.5503 15.7748H11.2027C11.1002 15.7748 10.9976 15.7308 10.9244 15.6576L9.63538 14.3686C9.60608 14.3393 9.59143 14.31 9.59143 14.2661V14.2075L4.80158 9.41762L4.37679 9.8424V11.981L8.62467 16.2289H11.8033C11.9058 16.2289 12.0083 16.2728 12.0816 16.3461L14.9379 19.2024C15.0111 19.2756 15.0551 19.3782 15.0551 19.4807V20.3742C15.0551 20.4767 15.0111 20.5793 14.9379 20.6525L14.1762 21.4142C14.103 21.4875 14.0004 21.5314 13.8979 21.5314C12.5942 21.5314 11.2906 21.5314 10.0016 21.5314C8.71256 21.5314 7.4089 21.5314 6.10524 21.5167C6.00271 21.5167 5.90017 21.4728 5.82693 21.3996L5.65116 21.2238C5.57792 21.1506 5.53397 21.048 5.53397 20.9455C5.53397 20.8429 5.57792 20.7404 5.65116 20.6672L6.76439 19.5686C6.83763 19.4953 6.94017 19.4514 7.04271 19.4514H8.39031L8.59538 19.2463C8.55143 19.1877 8.49284 19.1291 8.4489 19.0706C8.39031 19.0266 8.33172 18.968 8.27313 18.9094L7.64327 18.2356C7.59932 18.177 7.54073 18.1184 7.48214 18.0599C7.42355 18.0159 7.36496 17.9573 7.32101 17.8987L1.84272 12.4351C1.76948 12.3618 1.72553 12.2593 1.72553 12.1568V10.9849L1.41793 10.6773L0.802717 10.0475L0.495112 9.73987C0.421873 9.66663 0.37793 9.56409 0.37793 9.46156L0.37793 6.59058C0.37793 6.48804 0.421873 6.38551 0.495112 6.31227L1.69624 5.11115C1.76947 5.03791 1.87201 4.99396 1.97455 4.99396C2.09173 4.99396 2.17962 5.03791 2.25285 5.11115L4.86017 7.71846C4.93341 7.7917 4.97736 7.89424 4.97736 7.99677L4.97736 9.24184L9.59143 13.8852V13.3872L5.62186 9.41762C5.54862 9.34438 5.50468 9.24184 5.50468 9.13931L5.50468 6.73706L3.57116 4.80354C3.49793 4.7303 3.45398 4.62777 3.45398 4.52523V3.92467L2.37004 2.85538C2.2968 2.78214 2.25285 2.6796 2.25285 2.57707L2.25285 0.877914C2.25285 0.760731 2.2968 0.658196 2.37004 0.584957C2.44328 0.511717 2.53117 0.482421 2.64835 0.482421L8.94693 0.482421C9.04946 0.482421 9.152 0.526365 9.22524 0.599604C9.47425 0.848618 9.73791 1.11228 10.0016 1.36129C10.2652 1.62495 10.5289 1.88862 10.7779 2.15228L13.8686 5.22833L15.4213 6.781V6.18044L11.5396 2.29876C11.4664 2.22552 11.4224 2.12298 11.4224 2.02045V0.863266C11.4224 0.760731 11.4664 0.658196 11.5396 0.584957C11.6128 0.511717 11.7007 0.482421 11.8033 0.482421L12.9165 0.467773L14.6449 0.467773C14.7475 0.467773 14.85 0.511717 14.9233 0.584957L15.9486 1.61031L17.9847 3.66101C18.1604 3.82213 18.3362 3.99791 18.512 4.17368C18.6731 4.34946 18.8489 4.52523 19.01 4.68636L20.1525 4.68636C20.2551 4.68636 20.3576 4.7303 20.4309 4.80354L21.3244 5.68241C21.3976 5.75565 21.4416 5.85819 21.4416 5.96072V10.0768C21.4416 10.194 21.4123 10.2818 21.339 10.3551C21.2658 10.4283 21.1632 10.4723 21.0461 10.4723H19.8742C19.7717 10.4723 19.6692 10.4283 19.5959 10.3551L17.3841 8.1286H16.3148C16.2123 8.1286 16.1097 8.08466 16.0365 8.01142L15.5238 7.49875C15.4506 7.42551 15.4213 7.35227 15.4213 7.24973V7.1179L12.9751 4.65706L12.7554 4.87678C12.6821 4.95002 12.5796 4.99396 12.4771 4.99396L8.06806 4.99396L11.2027 8.1286H13.1069C13.2095 8.1286 13.312 8.17255 13.3852 8.24579L13.8833 8.74381C13.9565 8.81705 14.0004 8.91959 14.0004 9.02212V9.66663L17.0472 12.7134H17.4866L18.512 11.7027C18.5852 11.6294 18.6878 11.5855 18.7903 11.5855H20.1379C20.2404 11.5855 20.343 11.6294 20.4162 11.7027L21.3244 12.5962C21.3976 12.6694 21.4416 12.772 21.4416 12.8745ZM14.308 14.559H15.8461L15.6264 14.3393H15.4066L14.103 13.0356C13.8393 13.0356 13.5757 13.0356 13.3266 13.0503C12.77 12.4937 12.2134 11.937 11.6421 11.3658H11.1148L14.308 14.559ZM7.18918 16.4339L2.41398 11.6587V12.6548L7.18918 17.43V16.4339Z" fill="white"/>
</svg>
