<svg width="20" height="22" viewBox="0 0 20 22" fill="none" xmlns="http://www.w3.org/2000/svg">
<path d="M2.01165 10.5016H0.854474C0.737291 10.5016 0.649406 10.4576 0.576167 10.3844C0.502928 10.3111 0.458984 10.2232 0.458984 10.1061L0.458984 7.27903C0.458984 7.17649 0.502928 7.07396 0.576167 7.00072L4.67757 2.89932V1.75679C4.67757 1.65425 4.72151 1.55172 4.79475 1.47848L5.67362 0.599605C5.74686 0.526366 5.8494 0.482422 5.95193 0.482422L10.068 0.482422C10.1852 0.482422 10.2877 0.511718 10.3609 0.584957C10.4342 0.658196 10.4635 0.760731 10.4635 0.877914V2.0351C10.4635 2.13763 10.4195 2.24016 10.3463 2.3134C8.99869 3.67566 7.65108 5.02326 6.31813 6.35621C4.98517 7.68917 3.63757 9.03677 2.28997 10.3844C2.21673 10.4576 2.11419 10.5016 2.01165 10.5016ZM18.9446 2.12298V7.04466L19.6037 7.71846C19.677 7.7917 19.7209 7.89424 19.7209 7.99677V10.8678C19.7209 10.9703 19.677 11.0728 19.6037 11.1461L18.3001 12.4497V13.9877C18.3001 14.0903 18.2561 14.1928 18.1829 14.2661L17.9632 14.5004C17.8899 14.5737 17.7874 14.6176 17.6849 14.6176L16.513 14.6176L13.2612 17.8694V18.8508C13.2612 18.9534 13.2173 19.0559 13.144 19.1291L12.4263 19.8469C12.353 19.9201 12.2505 19.9641 12.148 19.9641L11.7818 19.9494L10.7418 21.0041C10.6685 21.0773 10.566 21.1213 10.4635 21.1213H8.22235L7.94404 21.3996C7.8708 21.4728 7.76827 21.5168 7.66573 21.5168H4.79475C4.69222 21.5168 4.58968 21.4728 4.51644 21.3996L3.31532 20.1984C3.24208 20.1252 3.19813 20.0227 3.19813 19.9201C3.19813 19.8176 3.24208 19.7151 3.31532 19.6418L9.39418 13.563C9.52601 13.4311 9.64319 13.3579 9.74573 13.3579C9.90685 13.3579 9.98009 13.5044 9.98009 13.7973V14.4711C9.98009 14.5737 9.93615 14.6762 9.86291 14.7494L8.86685 15.7455C8.79362 15.8187 8.69108 15.8627 8.58855 15.8627H8.25164C8.14911 15.8627 8.04658 15.8187 7.97334 15.7455L7.75362 15.5258L6.36207 16.9173H7.28489C7.38742 16.9173 7.48996 16.9613 7.5632 17.0345L8.03193 17.5179H11.5035L13.1294 15.892V14.9545C13.1294 14.852 13.1733 14.7494 13.2466 14.6762L13.9643 13.9585C14.0375 13.8852 14.1401 13.8413 14.2426 13.8413H14.4184V7.05931L14.1401 6.781L10.1852 10.7359V11.1461C10.1852 11.2486 10.1412 11.3511 10.068 11.4244L4.98517 16.5072V17.2249C4.98517 17.3275 4.94123 17.43 4.86799 17.5032L2.84659 19.5246C2.77335 19.5979 2.67081 19.6418 2.56827 19.6418H1.66011C1.55757 19.6418 1.45504 19.5979 1.3818 19.5246L0.576167 18.719C0.502928 18.6458 0.458984 18.5432 0.458984 18.4407L0.458984 12.9478C0.458984 12.8452 0.502928 12.7427 0.576167 12.6694L9.86291 3.39735C10.0094 3.25087 10.1266 3.17763 10.2291 3.17763C10.3902 3.17763 10.4635 3.33875 10.4635 3.64636V4.33481C10.4635 4.43734 10.4195 4.53988 10.3463 4.61312L9.37953 5.56523C9.30629 5.63847 9.20376 5.68241 9.10122 5.68241L7.88545 5.68241L4.64827 8.93424C4.76545 9.03677 4.88264 9.15396 4.98517 9.27114L5.67362 9.93029L6.01052 10.2672C6.08376 10.3404 6.12771 10.443 6.12771 10.5455V12.728L8.52996 10.3258C8.6032 10.2525 8.70573 10.2086 8.80826 10.2086H9.83361V9.88635C9.83361 9.78381 9.87756 9.68128 9.9508 9.60804L10.6685 8.89029C10.7418 8.81705 10.8443 8.77311 10.9469 8.77311H11.1519C11.2545 8.77311 11.357 8.81705 11.4302 8.89029L11.5621 9.02212L13.979 6.60523L13.8911 6.51734C13.8325 6.45875 13.8032 6.38551 13.8032 6.31227L13.8032 4.64241L13.5688 4.4227C13.4956 4.34946 13.4516 4.24692 13.4516 4.14439V3.00185C13.4516 2.89932 13.4956 2.79678 13.5688 2.72354L14.4477 1.84467C14.5209 1.77143 14.6235 1.72749 14.726 1.72749L15.3119 1.72749C15.5023 1.53707 15.6928 1.36129 15.8832 1.17087C16.0736 0.980449 16.264 0.790027 16.4544 0.599605C16.5277 0.526366 16.6302 0.482422 16.7328 0.482422L19.3254 0.482422C19.4426 0.482422 19.5451 0.511718 19.6184 0.584957C19.6916 0.658196 19.7209 0.760731 19.7209 0.877914V1.18552C19.7209 1.28805 19.677 1.39059 19.6037 1.46383L18.9446 2.12298ZM11.0054 18.9973L15.2973 14.7201H14.6381L10.3463 18.9973H11.0054Z" fill="white"/>
</svg>
