<svg width="22" height="22" viewBox="0 0 22 22" fill="none" xmlns="http://www.w3.org/2000/svg">
<path d="M21.2619 12.9038V13.4165C21.2619 13.519 21.2179 13.6216 21.1447 13.6948L20.2219 14.6176C20.1486 14.6908 20.0461 14.7348 19.9436 14.7348H17.1898C17.0872 14.7348 16.9847 14.6908 16.9115 14.6176L16.6331 14.3246H16.3402V14.4418C16.3402 14.5151 16.3109 14.5883 16.2523 14.6469L16.0033 14.8959C15.93 14.9692 15.8275 15.0131 15.725 15.0131H14.641L15.2709 15.6137L18.3176 15.599C18.4202 15.599 18.5227 15.643 18.596 15.7162L21.1447 18.2649C21.2179 18.3382 21.2619 18.4407 21.2619 18.5432V21.1359C21.2619 21.2531 21.2326 21.341 21.1593 21.4142C21.0861 21.4875 20.9836 21.5314 20.8664 21.5314H20.5588C20.4562 21.5314 20.3537 21.4875 20.2805 21.4142L19.6067 20.7404H14.6703L13.9965 21.4142C13.9233 21.4875 13.8208 21.5314 13.7182 21.5314L10.8472 21.5314C10.7447 21.5314 10.6422 21.4875 10.5689 21.4142C9.08949 19.9055 7.61006 18.3968 6.14527 16.9173C4.66584 15.4379 3.1864 13.9438 1.70697 12.4351C1.63373 12.3618 1.58979 12.2593 1.58979 12.1568V11.0142C1.37007 10.7945 1.165 10.5894 0.945282 10.3697C0.725564 10.1647 0.520495 9.95959 0.315425 9.73987C0.242185 9.66663 0.198242 9.56409 0.198242 9.46156L0.198242 6.59058C0.198242 6.48804 0.242185 6.38551 0.315425 6.31227L1.51655 5.11115C1.58979 5.03791 1.69232 4.99396 1.79486 4.99396C1.91204 4.99396 1.99993 5.03791 2.07317 5.11115L4.68049 7.71846C4.75373 7.7917 4.79767 7.89424 4.79767 7.99677L4.79767 9.08072C4.79767 9.18325 4.75373 9.28579 4.68049 9.35903L4.19711 9.8424V11.981L8.44499 16.2289H14.6703L15.0951 15.7894L14.3188 15.0131H14.2602C14.2162 15.0131 14.1869 14.9985 14.1577 14.9692L13.5131 14.3246H10.4957C10.3932 14.3246 10.2906 14.2807 10.2174 14.2075L5.44218 9.41762C5.36894 9.34438 5.32499 9.24184 5.32499 9.13931L5.32499 6.97142C5.04668 6.69311 4.78302 6.42945 4.50471 6.15114C4.2264 5.88748 3.96274 5.62382 3.69908 5.34551C3.62584 5.27227 3.5819 5.16974 3.5819 5.0672L3.5819 4.23227L2.19035 2.85538C2.11711 2.78214 2.07317 2.6796 2.07317 2.57707L2.07317 0.877914C2.07317 0.760731 2.11711 0.658196 2.19035 0.584957C2.26359 0.511717 2.35148 0.482421 2.46866 0.482421L8.76724 0.482421C8.86977 0.482421 8.97231 0.526365 9.04555 0.599604C10.0855 1.6396 11.1109 2.66495 12.1362 3.67565C13.1469 4.68636 14.1723 5.71171 15.2123 6.75171V6.15114L11.3599 2.29876C11.2867 2.22552 11.2427 2.12298 11.2427 2.02045V0.877914C11.2427 0.760731 11.2867 0.658196 11.3599 0.584957C11.4331 0.511717 11.521 0.482421 11.6382 0.482421C12.107 0.482421 12.5757 0.482421 13.0591 0.482421C13.5278 0.482421 13.9965 0.482421 14.4653 0.467773C14.5678 0.467773 14.6703 0.511717 14.7436 0.584957L15.7689 1.61031L17.805 3.66101C17.9807 3.82213 18.1565 3.99791 18.3323 4.17368C18.4934 4.34946 18.6692 4.52523 18.8303 4.68636L19.9729 4.68636C20.0754 4.68636 20.1779 4.7303 20.2512 4.80354L21.1447 5.68241C21.2179 5.75565 21.2619 5.85819 21.2619 5.96072V10.0768C21.2619 10.194 21.2326 10.2818 21.1593 10.3551C21.0861 10.4283 20.9836 10.4723 20.8664 10.4723H19.6945C19.592 10.4723 19.4895 10.4283 19.4162 10.3551L17.2044 8.1286H16.1058C16.0033 8.1286 15.9007 8.08466 15.8275 8.01142L15.3148 7.49875C15.2416 7.42551 15.2123 7.33762 15.2123 7.23509V7.08861L12.7954 4.65706L12.5757 4.87678C12.5024 4.95002 12.3999 4.99396 12.2974 4.99396L6.87767 4.99396L8.78189 6.89818H10.5982C10.7008 6.89818 10.8033 6.94213 10.8765 7.01537L11.1255 7.26438L11.6382 7.7917C11.6822 7.83565 11.7261 7.86494 11.7701 7.90889C11.7993 7.95283 11.8433 7.99677 11.8872 8.04072H12.312C12.4146 8.04072 12.5171 8.08466 12.5903 8.1579L13.0005 8.56804C13.0591 8.62663 13.0884 8.69987 13.0884 8.78776V8.91959C13.7182 9.56409 14.3481 10.194 14.9779 10.8238C15.6078 11.4537 16.2376 12.0835 16.8675 12.7134H17.3069L18.3323 11.7027C18.4055 11.6294 18.5081 11.5855 18.6106 11.5855H19.9582C20.0607 11.5855 20.1633 11.6294 20.2365 11.7027L21.1447 12.5962C21.174 12.6401 21.2033 12.6841 21.2326 12.7427C21.2472 12.8013 21.2619 12.8599 21.2619 12.9038ZM13.5131 13.8706H14.5238L13.6889 13.0356C13.4985 13.0503 13.3227 13.0503 13.1469 13.0503L11.1402 11.0435H10.6715L13.5131 13.8706ZM7.0095 17.4007V16.4339L2.26359 11.7027V12.6548L7.0095 17.4007Z" fill="white"/>
</svg>
